<svg width="189" height="39" viewBox="0 0 189 39" fill="none" xmlns="http://www.w3.org/2000/svg">
<g clip-path="url(#clip0)">
<path d="M26.4383 26.2841H5.39352C5.91648 31.1501 9.42605 34.0589 13.2475 34.0589C16.127 34.0589 19.06 33.2124 20.8904 29.5111L25.7578 30.5677C23.6124 36.0671 19.0033 38.8167 13.2444 38.8167C6.17797 38.8199 0 33.3206 0 25.0175C0 16.6603 6.12441 11.1068 13.4554 11.1068C20.4179 11.1068 26.1768 16.5011 26.4383 24.381V26.2841ZM5.55104 22.3728H20.84C20.002 18.0892 17.0186 15.9728 13.4586 15.9728C10.053 15.9728 6.3859 18.1401 5.55104 22.3728Z" fill="black"/>
<path d="M58.0092 38.0785H52.5117V35.1156C50.2088 37.442 47.0143 38.8168 43.0889 38.8168C36.3344 38.8168 30.21 33.2634 30.21 24.9603C30.21 16.7113 36.3344 11.1037 43.0889 11.1037C47.0143 11.1037 50.2088 12.4785 52.5117 14.859V0H58.0092V38.0785ZM52.5117 24.9634C52.5117 19.4641 48.3217 15.9729 43.9773 15.9729C39.2643 15.9729 35.5468 19.4641 35.5468 24.9634C35.5468 30.5169 39.2643 33.954 43.9773 33.954C48.3217 33.954 52.5117 30.5169 52.5117 24.9634Z" fill="black"/>
<path d="M72.8345 3.43709C72.8345 5.39432 71.3695 6.82326 69.3785 6.82326C67.337 6.82326 65.8721 5.39432 65.8721 3.43709C65.8721 1.58488 67.337 0 69.3785 0C71.3695 0 72.8345 1.58806 72.8345 3.43709Z" fill="black"/>
<path d="M72.0748 11.6384H66.6309V38.0817H72.0748V11.6384Z" fill="black"/>
<path d="M78.8135 11.6384H85.0986L104.99 38.0785H98.7084L78.8135 11.6384Z" fill="black"/>
<path d="M99.7553 19.0409L104.991 11.6384H94.5225L99.7553 19.0409Z" fill="#7C00C6"/>
<path d="M89.2855 38.0785H78.8135L84.0495 30.676L89.2855 38.0785Z" fill="#00CCFF"/>
</g>
<path d="M121.124 9.15755V19.1612H124.618C128.022 19.1612 130.142 17.0709 130.142 14.1594C130.142 11.2479 128.022 9.15755 124.618 9.15755H121.124ZM122.721 17.7129V10.6058H124.618C127.051 10.6058 128.529 12.084 128.529 14.1594C128.529 16.2347 127.051 17.7129 124.618 17.7129H122.721Z" fill="black"/>
<path d="M134.419 8.56032C133.837 8.56032 133.419 9.00824 133.419 9.53082C133.419 10.0833 133.837 10.4864 134.419 10.4864C134.987 10.4864 135.405 10.0833 135.405 9.53082C135.405 9.00824 134.987 8.56032 134.419 8.56032ZM135.196 19.1612V11.7555H133.643V19.1612H135.196Z" fill="black"/>
<path d="M146.205 11.7555H144.697V12.4871C144.129 11.8899 143.278 11.5614 142.144 11.5614C140.247 11.5614 138.515 13.0694 138.515 15.1299C138.515 17.1903 140.247 18.7282 142.144 18.7282C143.278 18.7282 144.129 18.3997 144.697 17.8025V18.2802C144.697 19.7136 143.771 20.5945 142.368 20.5945C141.188 20.5945 140.576 20.1466 140.023 19.2806L138.754 20.2212C139.351 21.3261 140.591 21.998 142.368 21.998C144.682 21.998 146.205 20.714 146.205 18.5042V11.7555ZM142.397 17.3844C141.069 17.3844 140.023 16.4886 140.023 15.1299C140.023 13.7562 141.069 12.8753 142.397 12.8753C143.607 12.8753 144.697 13.7562 144.697 15.1299C144.697 16.4886 143.607 17.3844 142.397 17.3844Z" fill="black"/>
<path d="M150.951 8.56032C150.369 8.56032 149.951 9.00824 149.951 9.53082C149.951 10.0833 150.369 10.4864 150.951 10.4864C151.518 10.4864 151.936 10.0833 151.936 9.53082C151.936 9.00824 151.518 8.56032 150.951 8.56032ZM151.727 19.1612V11.7555H150.175V19.1612H151.727Z" fill="black"/>
<path d="M160.139 17.5038C159.75 17.7577 159.273 17.907 158.884 17.907C158.153 17.907 157.66 17.4591 157.66 16.5333V13.0395H160.198V11.7555H157.66V9.45616H156.107V11.7555H154.51V13.0395H156.107V16.6379C156.107 18.4744 157.182 19.3702 158.78 19.3702C159.407 19.3702 159.915 19.2209 160.616 18.8028L160.139 17.5038Z" fill="black"/>
<path d="M170.416 11.7555H168.864V12.6066C168.222 11.9347 167.296 11.5465 166.176 11.5465C164.235 11.5465 162.503 13.1291 162.503 15.4583C162.503 17.8025 164.235 19.3702 166.176 19.3702C167.296 19.3702 168.222 18.982 168.864 18.3101V19.1612H170.416V11.7555ZM166.43 17.9966C165.071 17.9966 164.011 17.0261 164.011 15.4583C164.011 13.9055 165.071 12.9201 166.43 12.9201C167.654 12.9201 168.864 13.9055 168.864 15.4583C168.864 17.0261 167.654 17.9966 166.43 17.9966Z" fill="black"/>
<path d="M175.815 19.1612V8.41101H174.262V19.1612H175.815Z" fill="black"/>
<path d="M134.039 28.0699H132.352L130.157 35.6099L127.858 28.0699H126.32L124.02 35.6099L121.826 28.0699H120.153L123.139 38.0735H124.842L127.096 30.638L129.336 38.0735H131.038L134.039 28.0699Z" fill="black"/>
<path d="M139.697 30.5036C137.502 30.5036 135.71 32.0713 135.71 34.3706C135.71 36.67 137.502 38.2526 139.697 38.2526C141.876 38.2526 143.653 36.67 143.653 34.3706C143.653 32.0713 141.876 30.5036 139.697 30.5036ZM139.697 36.9089C138.398 36.9089 137.233 35.9085 137.233 34.3706C137.233 32.8328 138.398 31.8324 139.697 31.8324C140.966 31.8324 142.145 32.8328 142.145 34.3706C142.145 35.9085 140.966 36.9089 139.697 36.9089Z" fill="black"/>
<path d="M151.26 30.5782C149.976 30.5782 149.035 31.265 148.438 32.2505V30.6678H146.885V38.0735H148.438V35.4606C148.438 33.43 149.364 32.1161 151.245 32.1161C151.379 32.1161 151.559 32.1161 151.678 32.131L151.783 30.638C151.588 30.5782 151.439 30.5782 151.26 30.5782Z" fill="black"/>
<path d="M162.173 38.0735L157.858 34.2512L161.74 30.6678H159.754L156.664 33.4599H156.201V27.3233H154.648V38.0735H156.201V34.9977H156.649L160.068 38.0735H162.173Z" fill="black"/>
<path d="M171.365 34.2064C171.29 31.9817 169.648 30.4588 167.662 30.4588C165.572 30.4588 163.825 32.0265 163.825 34.3856C163.825 36.7297 165.587 38.2825 167.602 38.2825C169.245 38.2825 170.559 37.5061 171.171 35.9533L169.782 35.6547C169.26 36.6998 168.423 36.9387 167.602 36.9387C166.512 36.9387 165.512 36.1175 165.363 34.7439H171.365V34.2064ZM167.662 31.8324C168.677 31.8324 169.528 32.4296 169.767 33.639H165.407C165.646 32.4446 166.691 31.8324 167.662 31.8324Z" fill="black"/>
<path d="M178.952 30.5782C177.668 30.5782 176.727 31.265 176.13 32.2505V30.6678H174.577V38.0735H176.13V35.4606C176.13 33.43 177.056 32.1161 178.937 32.1161C179.071 32.1161 179.25 32.1161 179.37 32.131L179.474 30.638C179.28 30.5782 179.131 30.5782 178.952 30.5782Z" fill="black"/>
<path d="M181.611 36.0877C181.805 37.5808 183.223 38.2825 184.881 38.2825C186.732 38.2825 188.001 37.4464 188.001 35.8936C188.001 34.8484 187.27 34.1467 186.075 33.8929L184.313 33.5047C183.656 33.3554 183.417 33.0866 183.417 32.6685C183.417 32.146 183.821 31.698 184.731 31.698C185.687 31.698 186.299 32.1908 186.419 32.9074L187.897 32.5939C187.628 31.3546 186.478 30.4588 184.776 30.4588C182.999 30.4588 181.85 31.4293 181.85 32.8029C181.85 33.8481 182.581 34.5349 183.865 34.8186L185.478 35.147C186.165 35.2964 186.478 35.58 186.478 36.028C186.478 36.6103 185.911 37.0134 185.015 37.0134C184.045 37.0134 183.268 36.6401 183.164 35.7592L181.611 36.0877Z" fill="black"/>
<defs>
<clipPath id="clip0">
<rect width="104.932" height="38.82" fill="white"/>
</clipPath>
</defs>
</svg>
